G04 #@! TF.FileFunction,Soldermask,Bot*
%FSLAX46Y46*%
G04 Gerber Fmt 4.6, Leading zero omitted, Abs format (unit mm)*
G04 Created by KiCad (PCBNEW 4.0.3+e1-6302~38~ubuntu16.04.1-stable) date Tue Aug 30 03:26:48 2016*
%MOMM*%
%LPD*%
G01*
G04 APERTURE LIST*
%ADD10C,0.100000*%
%ADD11R,3.500000X3.500000*%
%ADD12C,2.000000*%
%ADD13C,1.300000*%
%ADD14R,1.300000X1.300000*%
%ADD15C,3.000000*%
%ADD16O,3.962400X1.981200*%
%ADD17O,2.540000X2.032000*%
%ADD18O,3.014980X1.506220*%
%ADD19O,2.499360X1.501140*%
%ADD20R,2.499360X1.501140*%
%ADD21O,1.501140X2.499360*%
%ADD22C,7.000000*%
%ADD23C,0.254000*%
G04 APERTURE END LIST*
D10*
D11*
X138065504Y-94908642D03*
X138065504Y-100008642D03*
X138065504Y-105108642D03*
X138065504Y-110208642D03*
X138065504Y-115308642D03*
X138065504Y-120408642D03*
X138065504Y-125508642D03*
X138065504Y-130608642D03*
X184065504Y-130608642D03*
X184065504Y-125508642D03*
X184065504Y-120408642D03*
X184065504Y-115308642D03*
X184065504Y-110208642D03*
X184065504Y-105108642D03*
X184065504Y-100008642D03*
X184065504Y-94908642D03*
D12*
X239073504Y-97106642D03*
X239073504Y-92106642D03*
X239073504Y-89906642D03*
X201173504Y-90656642D03*
X201173504Y-85656642D03*
D13*
X234473504Y-126106642D03*
D14*
X234473504Y-128606642D03*
D13*
X234473504Y-109106642D03*
D14*
X234473504Y-111606642D03*
D13*
X234473504Y-117806642D03*
D14*
X234473504Y-120306642D03*
D13*
X234573504Y-134206642D03*
D14*
X234573504Y-136706642D03*
D13*
X242073504Y-126206642D03*
D14*
X242073504Y-128706642D03*
D13*
X242073504Y-134206642D03*
D14*
X242073504Y-136706642D03*
D13*
X242073504Y-117806642D03*
D14*
X242073504Y-120306642D03*
D13*
X242073504Y-109106642D03*
D14*
X242073504Y-111606642D03*
D15*
X220073504Y-107206642D03*
X220073504Y-137206642D03*
X215073504Y-137206642D03*
X215073504Y-107206642D03*
X225073504Y-107206642D03*
X225073504Y-137206642D03*
D16*
X29665504Y-40608642D03*
D17*
X134965504Y-68908642D03*
X134965504Y-66368642D03*
X134965504Y-71448642D03*
X182165504Y-66408642D03*
X182165504Y-68948642D03*
X182165504Y-63868642D03*
D14*
X73565504Y-123708642D03*
D13*
X73565504Y-116208642D03*
D14*
X52565504Y-101708642D03*
D13*
X52565504Y-94208642D03*
D14*
X52565504Y-145408642D03*
D13*
X52565504Y-137908642D03*
D14*
X73565504Y-101208642D03*
D13*
X73565504Y-93708642D03*
D14*
X52565504Y-123208642D03*
D13*
X52565504Y-115708642D03*
D14*
X73465504Y-145608642D03*
D13*
X73465504Y-138108642D03*
D14*
X73565504Y-79708642D03*
D13*
X73565504Y-72208642D03*
D14*
X51565504Y-79708642D03*
D13*
X51565504Y-72208642D03*
D18*
X123465504Y-124178642D03*
X123465504Y-121638642D03*
X123465504Y-147778642D03*
X123465504Y-145238642D03*
X94736558Y-37725974D03*
X94736558Y-35185974D03*
X123465504Y-76378642D03*
X123465504Y-73838642D03*
X123465504Y-99678642D03*
X123465504Y-97138642D03*
X94736558Y-43025974D03*
X94736558Y-40485974D03*
X94736558Y-48325974D03*
X94736558Y-45785974D03*
X94736558Y-53625974D03*
X94736558Y-51085974D03*
D19*
X111865504Y-124908642D03*
X111865504Y-122368642D03*
X111865504Y-127448642D03*
X111929504Y-148508642D03*
X111929504Y-145968642D03*
X111929504Y-151048642D03*
X111865504Y-96721954D03*
X111865504Y-94181954D03*
X111865504Y-99261954D03*
X112465504Y-74115544D03*
X112465504Y-71575544D03*
X112465504Y-76655544D03*
D20*
X205573504Y-128106642D03*
D19*
X205573504Y-133186642D03*
D20*
X205573504Y-111526642D03*
D19*
X205573504Y-116606642D03*
D21*
X228233504Y-78506642D03*
X225693504Y-78506642D03*
X230773504Y-78506642D03*
X33565504Y-70844642D03*
X31025504Y-70844642D03*
X36105504Y-70844642D03*
D22*
X24000000Y-161000000D03*
X24000000Y-24000000D03*
X266000000Y-161000000D03*
X266000000Y-24000000D03*
X145000000Y-24000000D03*
X145000000Y-161000000D03*
D23*
G36*
X111173000Y-98373000D02*
X105927000Y-98373000D01*
X105927000Y-96027000D01*
X111173000Y-96027000D01*
X111173000Y-98373000D01*
X111173000Y-98373000D01*
G37*
X111173000Y-98373000D02*
X105927000Y-98373000D01*
X105927000Y-96027000D01*
X111173000Y-96027000D01*
X111173000Y-98373000D01*
M02*
