M48
INCH,TZ
T1C0.016
T2C0.031
T3C0.039
T4C0.039
T5C0.039
T6C0.045
T7C0.052
T8C0.059
T9C0.118
%
G90
G05
T1
X8963Y-29177
X9160Y-36381
X9882Y-35433
X10748Y-36378
X11876Y-24846
X12008Y-35906
X12152Y-38586
X12664Y-24846
X12939Y-38586
X13097Y-35948
X13766Y-38547
X14002Y-24846
X14829Y-24846
X14986Y-34925
X25931Y-16027
X26679Y-15988
X26797Y-21814
X26797Y-24019
X30262Y-14373
X30419Y-16106
X31246Y-19098
X31404Y-18035
X31561Y-17641
X32766Y-17681
X33018Y-22996
X33018Y-23665
X33766Y-15476
X33884Y-23665
X34002Y-24452
X34199Y-22996
X34278Y-39492
X34291Y-24882
X34671Y-39452
X34908Y-41027
X35105Y-18822
X38215Y-14492
X38215Y-15161
X39475Y-12484
X39475Y-13586
X39593Y-19019
X39671Y-18429
X40026Y-18232
X40498Y-13232
X41128Y-12051
X41443Y-19059
X41679Y-12090
X41758Y-22051
X41758Y-23310
X41850Y-14252
X41850Y-38268
X41997Y-15085
X42008Y-37953
X42008Y-38583
X42121Y-18901
X42152Y-19452
X42165Y-38268
X42270Y-10791
X42270Y-12001
X42323Y-37953
X42323Y-38583
X42480Y-38268
X42638Y-37953
X42638Y-38583
X42821Y-12287
X43060Y-26817
X43136Y-10279
X43136Y-12001
X43215Y-19492
X43608Y-12090
X43923Y-14334
X44238Y-19688
X44484Y-11775
X44484Y-14492
X45026Y-11775
X45183Y-36145
X45223Y-56578
X45498Y-21893
X45498Y-24019
X45656Y-15279
X46679Y-30200
X46719Y-59452
X46797Y-11539
X46797Y-13192
X46797Y-59964
X46837Y-30712
X46955Y-60870
X51994Y-22444
X51994Y-23389
X51994Y-24295
X54160Y-29492
X55813Y-26303
X55853Y-22287
X57112Y-29413
X58175Y-29373
X58766Y-24413
X60459Y-23074
X60459Y-23862
X61168Y-22444
X62585Y-27169
X63569Y-19807
X64435Y-19807
X67624Y-19570
X67821Y-23586
X68307Y-22756
X69356Y-21342
X69671Y-19098
X69908Y-20830
X70787Y-20827
X71286Y-23980
X71601Y-21933
X72979Y-23980
X84278Y-23114
X85709Y-20709
X85709Y-21535
X86482Y-27838
X86482Y-29413
X87860Y-31893
X88215Y-25082
X88215Y-26263
X88923Y-22090
X89553Y-25397
X92191Y-31775
X92979Y-31775
X93412Y-33429
X94908Y-17287
X94908Y-19098
X95498Y-19098
X96049Y-17287
X96049Y-19098
X96181Y-32205
X96207Y-33429
X98412Y-24807
X98727Y-32444
X98739Y-33756
X99475Y-41657
X99475Y-42917
X99475Y-43153
X99514Y-27602
X99514Y-28980
X99514Y-32173
X99711Y-41499
X99711Y-41775
X99711Y-42917
X99711Y-43153
X99947Y-41499
X99947Y-41775
X99947Y-42917
X99947Y-43153
X100183Y-41499
X100183Y-41775
X100183Y-42051
X100183Y-42316
X100183Y-42602
X100183Y-42877
X100183Y-43153
X100223Y-24807
X100419Y-41775
X100419Y-42051
X100419Y-42326
X100419Y-42602
X100419Y-42877
X103569Y-27996
X104435Y-28507
X104553Y-31736
X104553Y-33389
T2
X20301Y-28429
X20301Y-31381
X20695Y-37090
X20695Y-40043
X20695Y-45555
X20695Y-48507
X20695Y-54295
X20695Y-57247
X28923Y-54373
X28923Y-57326
X28963Y-28429
X28963Y-31381
X28963Y-36893
X28963Y-39846
X28963Y-45751
X28963Y-48704
X92312Y-42955
X92312Y-43940
X92312Y-46381
X92312Y-47365
X92312Y-49648
X92312Y-50633
X92352Y-52837
X92352Y-53822
X95305Y-42955
X95305Y-43940
X95305Y-46381
X95305Y-47365
X95305Y-49688
X95305Y-50672
X95305Y-52837
X95305Y-53822
T3
X37298Y-13853
X37298Y-14853
X37298Y-15939
X37298Y-16939
X37298Y-18026
X37298Y-19026
X37298Y-20113
X37298Y-21113
X48608Y-29070
X48608Y-30070
X48608Y-38244
X48608Y-39244
X48608Y-47889
X48608Y-48889
X48608Y-57181
X48608Y-58181
T4
X79202Y-33723
X79202Y-35692
X94123Y-35396
X94123Y-36262
X94123Y-38231
T5
X12215Y-27892
X13215Y-27892
X14215Y-27892
X44042Y-37080
X44042Y-38080
X44042Y-39080
X44042Y-48177
X44042Y-49177
X44042Y-50177
X44067Y-57468
X44067Y-58468
X44067Y-59468
X44278Y-28179
X44278Y-29179
X44278Y-30179
X80934Y-43908
X80934Y-45908
X80934Y-50436
X80934Y-52436
X88856Y-30908
X89856Y-30908
X90856Y-30908
T6
X53136Y-26129
X53136Y-27129
X53136Y-28129
X71719Y-25145
X71719Y-26145
X71719Y-27145
T7
X11561Y-48035
X11561Y-50003
X11561Y-53153
X11561Y-55122
X11679Y-14019
X11679Y-15988
X11679Y-17956
X11679Y-19925
X59396Y-13901
X61364Y-13901
X75105Y-14098
X77073Y-14098
X82283Y-14134
X84252Y-14134
X100656Y-50082
X100656Y-52051
X100656Y-45136
X100656Y-47104
T8
X54356Y-37366
X54356Y-39373
X54356Y-41381
X54356Y-43389
X54356Y-45397
X54356Y-47405
X54356Y-49413
X54356Y-51421
X72467Y-37366
X72467Y-39373
X72467Y-41381
X72467Y-43389
X72467Y-45397
X72467Y-47405
X72467Y-49413
X72467Y-51421
X84675Y-42207
X84675Y-54018
X86643Y-42207
X86643Y-54018
X88612Y-42207
X88612Y-54018
T9
X9449Y-9449
X9449Y-63386
X57087Y-9449
X57087Y-63386
X104724Y-9449
X104724Y-63386
T0
M30
