G04 #@! TF.FileFunction,Other,Comment*
%FSLAX46Y46*%
G04 Gerber Fmt 4.6, Leading zero omitted, Abs format (unit mm)*
G04 Created by KiCad (PCBNEW 4.0.3+e1-6302~38~ubuntu16.04.1-stable) date Tue Aug 30 03:26:48 2016*
%MOMM*%
%LPD*%
G01*
G04 APERTURE LIST*
%ADD10C,0.100000*%
%ADD11C,0.300000*%
%ADD12C,0.250000*%
G04 APERTURE END LIST*
D10*
D11*
X262203571Y-143235715D02*
X262203571Y-142950001D01*
X262275000Y-142807143D01*
X262417857Y-142664286D01*
X262703571Y-142592858D01*
X263203571Y-142592858D01*
X263489286Y-142664286D01*
X263632143Y-142807143D01*
X263703571Y-142950001D01*
X263703571Y-143235715D01*
X263632143Y-143378572D01*
X263489286Y-143521429D01*
X263203571Y-143592858D01*
X262703571Y-143592858D01*
X262417857Y-143521429D01*
X262275000Y-143378572D01*
X262203571Y-143235715D01*
X262703571Y-141307143D02*
X263703571Y-141307143D01*
X262703571Y-141950000D02*
X263489286Y-141950000D01*
X263632143Y-141878572D01*
X263703571Y-141735714D01*
X263703571Y-141521429D01*
X263632143Y-141378572D01*
X263560714Y-141307143D01*
X262703571Y-140807143D02*
X262703571Y-140235714D01*
X262203571Y-140592857D02*
X263489286Y-140592857D01*
X263632143Y-140521429D01*
X263703571Y-140378571D01*
X263703571Y-140235714D01*
X262703571Y-139735714D02*
X264203571Y-139735714D01*
X262775000Y-139735714D02*
X262703571Y-139592857D01*
X262703571Y-139307143D01*
X262775000Y-139164286D01*
X262846429Y-139092857D01*
X262989286Y-139021428D01*
X263417857Y-139021428D01*
X263560714Y-139092857D01*
X263632143Y-139164286D01*
X263703571Y-139307143D01*
X263703571Y-139592857D01*
X263632143Y-139735714D01*
X262703571Y-137735714D02*
X263703571Y-137735714D01*
X262703571Y-138378571D02*
X263489286Y-138378571D01*
X263632143Y-138307143D01*
X263703571Y-138164285D01*
X263703571Y-137950000D01*
X263632143Y-137807143D01*
X263560714Y-137735714D01*
X262703571Y-137235714D02*
X262703571Y-136664285D01*
X262203571Y-137021428D02*
X263489286Y-137021428D01*
X263632143Y-136950000D01*
X263703571Y-136807142D01*
X263703571Y-136664285D01*
X266253571Y-141842856D02*
X266253571Y-142699999D01*
X266253571Y-142271427D02*
X264753571Y-142271427D01*
X264967857Y-142414284D01*
X265110714Y-142557142D01*
X265182143Y-142699999D01*
X266253571Y-140414285D02*
X266253571Y-141271428D01*
X266253571Y-140842856D02*
X264753571Y-140842856D01*
X264967857Y-140985713D01*
X265110714Y-141128571D01*
X265182143Y-141271428D01*
X264753571Y-139485714D02*
X264753571Y-139342857D01*
X264825000Y-139200000D01*
X264896429Y-139128571D01*
X265039286Y-139057142D01*
X265325000Y-138985714D01*
X265682143Y-138985714D01*
X265967857Y-139057142D01*
X266110714Y-139128571D01*
X266182143Y-139200000D01*
X266253571Y-139342857D01*
X266253571Y-139485714D01*
X266182143Y-139628571D01*
X266110714Y-139700000D01*
X265967857Y-139771428D01*
X265682143Y-139842857D01*
X265325000Y-139842857D01*
X265039286Y-139771428D01*
X264896429Y-139700000D01*
X264825000Y-139628571D01*
X264753571Y-139485714D01*
X264753571Y-138557143D02*
X266253571Y-138057143D01*
X264753571Y-137557143D01*
X23803571Y-118007142D02*
X22303571Y-118007142D01*
X22803571Y-117292856D02*
X23803571Y-117292856D01*
X22946429Y-117292856D02*
X22875000Y-117221428D01*
X22803571Y-117078570D01*
X22803571Y-116864285D01*
X22875000Y-116721428D01*
X23017857Y-116649999D01*
X23803571Y-116649999D01*
X22803571Y-115935713D02*
X24303571Y-115935713D01*
X22875000Y-115935713D02*
X22803571Y-115792856D01*
X22803571Y-115507142D01*
X22875000Y-115364285D01*
X22946429Y-115292856D01*
X23089286Y-115221427D01*
X23517857Y-115221427D01*
X23660714Y-115292856D01*
X23732143Y-115364285D01*
X23803571Y-115507142D01*
X23803571Y-115792856D01*
X23732143Y-115935713D01*
X22803571Y-113935713D02*
X23803571Y-113935713D01*
X22803571Y-114578570D02*
X23589286Y-114578570D01*
X23732143Y-114507142D01*
X23803571Y-114364284D01*
X23803571Y-114149999D01*
X23732143Y-114007142D01*
X23660714Y-113935713D01*
X22803571Y-113435713D02*
X22803571Y-112864284D01*
X22303571Y-113221427D02*
X23589286Y-113221427D01*
X23732143Y-113149999D01*
X23803571Y-113007141D01*
X23803571Y-112864284D01*
X22446429Y-111292856D02*
X22375000Y-111221427D01*
X22303571Y-111078570D01*
X22303571Y-110721427D01*
X22375000Y-110578570D01*
X22446429Y-110507141D01*
X22589286Y-110435713D01*
X22732143Y-110435713D01*
X22946429Y-110507141D01*
X23803571Y-111364284D01*
X23803571Y-110435713D01*
X22303571Y-109078570D02*
X22303571Y-109792856D01*
X23017857Y-109864285D01*
X22946429Y-109792856D01*
X22875000Y-109649999D01*
X22875000Y-109292856D01*
X22946429Y-109149999D01*
X23017857Y-109078570D01*
X23160714Y-109007142D01*
X23517857Y-109007142D01*
X23660714Y-109078570D01*
X23732143Y-109149999D01*
X23803571Y-109292856D01*
X23803571Y-109649999D01*
X23732143Y-109792856D01*
X23660714Y-109864285D01*
X23232143Y-107221428D02*
X23232143Y-106078571D01*
X22946429Y-104007142D02*
X22875000Y-104150000D01*
X22803571Y-104221428D01*
X22660714Y-104292857D01*
X22589286Y-104292857D01*
X22446429Y-104221428D01*
X22375000Y-104150000D01*
X22303571Y-104007142D01*
X22303571Y-103721428D01*
X22375000Y-103578571D01*
X22446429Y-103507142D01*
X22589286Y-103435714D01*
X22660714Y-103435714D01*
X22803571Y-103507142D01*
X22875000Y-103578571D01*
X22946429Y-103721428D01*
X22946429Y-104007142D01*
X23017857Y-104150000D01*
X23089286Y-104221428D01*
X23232143Y-104292857D01*
X23517857Y-104292857D01*
X23660714Y-104221428D01*
X23732143Y-104150000D01*
X23803571Y-104007142D01*
X23803571Y-103721428D01*
X23732143Y-103578571D01*
X23660714Y-103507142D01*
X23517857Y-103435714D01*
X23232143Y-103435714D01*
X23089286Y-103507142D01*
X23017857Y-103578571D01*
X22946429Y-103721428D01*
X22303571Y-102507143D02*
X22303571Y-102364286D01*
X22375000Y-102221429D01*
X22446429Y-102150000D01*
X22589286Y-102078571D01*
X22875000Y-102007143D01*
X23232143Y-102007143D01*
X23517857Y-102078571D01*
X23660714Y-102150000D01*
X23732143Y-102221429D01*
X23803571Y-102364286D01*
X23803571Y-102507143D01*
X23732143Y-102650000D01*
X23660714Y-102721429D01*
X23517857Y-102792857D01*
X23232143Y-102864286D01*
X22875000Y-102864286D01*
X22589286Y-102792857D01*
X22446429Y-102721429D01*
X22375000Y-102650000D01*
X22303571Y-102507143D01*
X22303571Y-101578572D02*
X23803571Y-101078572D01*
X22303571Y-100578572D01*
D12*
X125114286Y-152052381D02*
X125114286Y-151052381D01*
X125685715Y-152052381D01*
X125685715Y-151052381D01*
X126733334Y-151957143D02*
X126685715Y-152004762D01*
X126542858Y-152052381D01*
X126447620Y-152052381D01*
X126304762Y-152004762D01*
X126209524Y-151909524D01*
X126161905Y-151814286D01*
X126114286Y-151623810D01*
X126114286Y-151480952D01*
X126161905Y-151290476D01*
X126209524Y-151195238D01*
X126304762Y-151100000D01*
X126447620Y-151052381D01*
X126542858Y-151052381D01*
X126685715Y-151100000D01*
X126733334Y-151147619D01*
X125509524Y-150552381D02*
X125033333Y-150552381D01*
X125033333Y-149552381D01*
X126033333Y-149552381D02*
X126223810Y-149552381D01*
X126319048Y-149600000D01*
X126414286Y-149695238D01*
X126461905Y-149885714D01*
X126461905Y-150219048D01*
X126414286Y-150409524D01*
X126319048Y-150504762D01*
X126223810Y-150552381D01*
X126033333Y-150552381D01*
X125938095Y-150504762D01*
X125842857Y-150409524D01*
X125795238Y-150219048D01*
X125795238Y-149885714D01*
X125842857Y-149695238D01*
X125938095Y-149600000D01*
X126033333Y-149552381D01*
X127414286Y-150552381D02*
X126842857Y-150552381D01*
X127128571Y-150552381D02*
X127128571Y-149552381D01*
X127033333Y-149695238D01*
X126938095Y-149790476D01*
X126842857Y-149838095D01*
X122161905Y-128452381D02*
X122161905Y-127452381D01*
X122161905Y-127928571D02*
X122733334Y-127928571D01*
X122733334Y-128452381D02*
X122733334Y-127452381D01*
X123161905Y-128404762D02*
X123304762Y-128452381D01*
X123542858Y-128452381D01*
X123638096Y-128404762D01*
X123685715Y-128357143D01*
X123733334Y-128261905D01*
X123733334Y-128166667D01*
X123685715Y-128071429D01*
X123638096Y-128023810D01*
X123542858Y-127976190D01*
X123352381Y-127928571D01*
X123257143Y-127880952D01*
X123209524Y-127833333D01*
X123161905Y-127738095D01*
X123161905Y-127642857D01*
X123209524Y-127547619D01*
X123257143Y-127500000D01*
X123352381Y-127452381D01*
X123590477Y-127452381D01*
X123733334Y-127500000D01*
X124685715Y-128452381D02*
X124114286Y-128452381D01*
X124400000Y-128452381D02*
X124400000Y-127452381D01*
X124304762Y-127595238D01*
X124209524Y-127690476D01*
X124114286Y-127738095D01*
X122114286Y-127052381D02*
X122114286Y-126052381D01*
X122114286Y-126528571D02*
X122685715Y-126528571D01*
X122685715Y-127052381D02*
X122685715Y-126052381D01*
X123352381Y-126052381D02*
X123542858Y-126052381D01*
X123638096Y-126100000D01*
X123733334Y-126195238D01*
X123780953Y-126385714D01*
X123780953Y-126719048D01*
X123733334Y-126909524D01*
X123638096Y-127004762D01*
X123542858Y-127052381D01*
X123352381Y-127052381D01*
X123257143Y-127004762D01*
X123161905Y-126909524D01*
X123114286Y-126719048D01*
X123114286Y-126385714D01*
X123161905Y-126195238D01*
X123257143Y-126100000D01*
X123352381Y-126052381D01*
X124733334Y-127052381D02*
X124161905Y-127052381D01*
X124447619Y-127052381D02*
X124447619Y-126052381D01*
X124352381Y-126195238D01*
X124257143Y-126290476D01*
X124161905Y-126338095D01*
X122261905Y-103752381D02*
X122261905Y-102752381D01*
X122261905Y-103228571D02*
X122833334Y-103228571D01*
X122833334Y-103752381D02*
X122833334Y-102752381D01*
X123261905Y-103704762D02*
X123404762Y-103752381D01*
X123642858Y-103752381D01*
X123738096Y-103704762D01*
X123785715Y-103657143D01*
X123833334Y-103561905D01*
X123833334Y-103466667D01*
X123785715Y-103371429D01*
X123738096Y-103323810D01*
X123642858Y-103276190D01*
X123452381Y-103228571D01*
X123357143Y-103180952D01*
X123309524Y-103133333D01*
X123261905Y-103038095D01*
X123261905Y-102942857D01*
X123309524Y-102847619D01*
X123357143Y-102800000D01*
X123452381Y-102752381D01*
X123690477Y-102752381D01*
X123833334Y-102800000D01*
X124214286Y-102847619D02*
X124261905Y-102800000D01*
X124357143Y-102752381D01*
X124595239Y-102752381D01*
X124690477Y-102800000D01*
X124738096Y-102847619D01*
X124785715Y-102942857D01*
X124785715Y-103038095D01*
X124738096Y-103180952D01*
X124166667Y-103752381D01*
X124785715Y-103752381D01*
X122314286Y-102252381D02*
X122314286Y-101252381D01*
X122314286Y-101728571D02*
X122885715Y-101728571D01*
X122885715Y-102252381D02*
X122885715Y-101252381D01*
X123552381Y-101252381D02*
X123742858Y-101252381D01*
X123838096Y-101300000D01*
X123933334Y-101395238D01*
X123980953Y-101585714D01*
X123980953Y-101919048D01*
X123933334Y-102109524D01*
X123838096Y-102204762D01*
X123742858Y-102252381D01*
X123552381Y-102252381D01*
X123457143Y-102204762D01*
X123361905Y-102109524D01*
X123314286Y-101919048D01*
X123314286Y-101585714D01*
X123361905Y-101395238D01*
X123457143Y-101300000D01*
X123552381Y-101252381D01*
X124361905Y-101347619D02*
X124409524Y-101300000D01*
X124504762Y-101252381D01*
X124742858Y-101252381D01*
X124838096Y-101300000D01*
X124885715Y-101347619D01*
X124933334Y-101442857D01*
X124933334Y-101538095D01*
X124885715Y-101680952D01*
X124314286Y-102252381D01*
X124933334Y-102252381D01*
X127114286Y-77152381D02*
X127114286Y-76152381D01*
X127685715Y-77152381D01*
X127685715Y-76152381D01*
X128733334Y-77057143D02*
X128685715Y-77104762D01*
X128542858Y-77152381D01*
X128447620Y-77152381D01*
X128304762Y-77104762D01*
X128209524Y-77009524D01*
X128161905Y-76914286D01*
X128114286Y-76723810D01*
X128114286Y-76580952D01*
X128161905Y-76390476D01*
X128209524Y-76295238D01*
X128304762Y-76200000D01*
X128447620Y-76152381D01*
X128542858Y-76152381D01*
X128685715Y-76200000D01*
X128733334Y-76247619D01*
X127509524Y-74352381D02*
X127033333Y-74352381D01*
X127033333Y-73352381D01*
X128033333Y-73352381D02*
X128223810Y-73352381D01*
X128319048Y-73400000D01*
X128414286Y-73495238D01*
X128461905Y-73685714D01*
X128461905Y-74019048D01*
X128414286Y-74209524D01*
X128319048Y-74304762D01*
X128223810Y-74352381D01*
X128033333Y-74352381D01*
X127938095Y-74304762D01*
X127842857Y-74209524D01*
X127795238Y-74019048D01*
X127795238Y-73685714D01*
X127842857Y-73495238D01*
X127938095Y-73400000D01*
X128033333Y-73352381D01*
X128842857Y-73447619D02*
X128890476Y-73400000D01*
X128985714Y-73352381D01*
X129223810Y-73352381D01*
X129319048Y-73400000D01*
X129366667Y-73447619D01*
X129414286Y-73542857D01*
X129414286Y-73638095D01*
X129366667Y-73780952D01*
X128795238Y-74352381D01*
X129414286Y-74352381D01*
X88714286Y-53952381D02*
X88714286Y-52952381D01*
X88714286Y-53428571D02*
X89285715Y-53428571D01*
X89285715Y-53952381D02*
X89285715Y-52952381D01*
X89952381Y-52952381D02*
X90142858Y-52952381D01*
X90238096Y-53000000D01*
X90333334Y-53095238D01*
X90380953Y-53285714D01*
X90380953Y-53619048D01*
X90333334Y-53809524D01*
X90238096Y-53904762D01*
X90142858Y-53952381D01*
X89952381Y-53952381D01*
X89857143Y-53904762D01*
X89761905Y-53809524D01*
X89714286Y-53619048D01*
X89714286Y-53285714D01*
X89761905Y-53095238D01*
X89857143Y-53000000D01*
X89952381Y-52952381D01*
X91333334Y-53952381D02*
X90761905Y-53952381D01*
X91047619Y-53952381D02*
X91047619Y-52952381D01*
X90952381Y-53095238D01*
X90857143Y-53190476D01*
X90761905Y-53238095D01*
X88761905Y-51752381D02*
X88761905Y-50752381D01*
X88761905Y-51228571D02*
X89333334Y-51228571D01*
X89333334Y-51752381D02*
X89333334Y-50752381D01*
X89761905Y-51704762D02*
X89904762Y-51752381D01*
X90142858Y-51752381D01*
X90238096Y-51704762D01*
X90285715Y-51657143D01*
X90333334Y-51561905D01*
X90333334Y-51466667D01*
X90285715Y-51371429D01*
X90238096Y-51323810D01*
X90142858Y-51276190D01*
X89952381Y-51228571D01*
X89857143Y-51180952D01*
X89809524Y-51133333D01*
X89761905Y-51038095D01*
X89761905Y-50942857D01*
X89809524Y-50847619D01*
X89857143Y-50800000D01*
X89952381Y-50752381D01*
X90190477Y-50752381D01*
X90333334Y-50800000D01*
X91285715Y-51752381D02*
X90714286Y-51752381D01*
X91000000Y-51752381D02*
X91000000Y-50752381D01*
X90904762Y-50895238D01*
X90809524Y-50990476D01*
X90714286Y-51038095D01*
X89514286Y-46352381D02*
X89514286Y-45352381D01*
X90085715Y-46352381D01*
X90085715Y-45352381D01*
X91133334Y-46257143D02*
X91085715Y-46304762D01*
X90942858Y-46352381D01*
X90847620Y-46352381D01*
X90704762Y-46304762D01*
X90609524Y-46209524D01*
X90561905Y-46114286D01*
X90514286Y-45923810D01*
X90514286Y-45780952D01*
X90561905Y-45590476D01*
X90609524Y-45495238D01*
X90704762Y-45400000D01*
X90847620Y-45352381D01*
X90942858Y-45352381D01*
X91085715Y-45400000D01*
X91133334Y-45447619D01*
X89409524Y-49352381D02*
X88933333Y-49352381D01*
X88933333Y-48352381D01*
X89933333Y-48352381D02*
X90123810Y-48352381D01*
X90219048Y-48400000D01*
X90314286Y-48495238D01*
X90361905Y-48685714D01*
X90361905Y-49019048D01*
X90314286Y-49209524D01*
X90219048Y-49304762D01*
X90123810Y-49352381D01*
X89933333Y-49352381D01*
X89838095Y-49304762D01*
X89742857Y-49209524D01*
X89695238Y-49019048D01*
X89695238Y-48685714D01*
X89742857Y-48495238D01*
X89838095Y-48400000D01*
X89933333Y-48352381D01*
X91314286Y-49352381D02*
X90742857Y-49352381D01*
X91028571Y-49352381D02*
X91028571Y-48352381D01*
X90933333Y-48495238D01*
X90838095Y-48590476D01*
X90742857Y-48638095D01*
X89514286Y-41052381D02*
X89514286Y-40052381D01*
X90085715Y-41052381D01*
X90085715Y-40052381D01*
X91133334Y-40957143D02*
X91085715Y-41004762D01*
X90942858Y-41052381D01*
X90847620Y-41052381D01*
X90704762Y-41004762D01*
X90609524Y-40909524D01*
X90561905Y-40814286D01*
X90514286Y-40623810D01*
X90514286Y-40480952D01*
X90561905Y-40290476D01*
X90609524Y-40195238D01*
X90704762Y-40100000D01*
X90847620Y-40052381D01*
X90942858Y-40052381D01*
X91085715Y-40100000D01*
X91133334Y-40147619D01*
X89209524Y-43352381D02*
X88733333Y-43352381D01*
X88733333Y-42352381D01*
X89733333Y-42352381D02*
X89923810Y-42352381D01*
X90019048Y-42400000D01*
X90114286Y-42495238D01*
X90161905Y-42685714D01*
X90161905Y-43019048D01*
X90114286Y-43209524D01*
X90019048Y-43304762D01*
X89923810Y-43352381D01*
X89733333Y-43352381D01*
X89638095Y-43304762D01*
X89542857Y-43209524D01*
X89495238Y-43019048D01*
X89495238Y-42685714D01*
X89542857Y-42495238D01*
X89638095Y-42400000D01*
X89733333Y-42352381D01*
X90542857Y-42447619D02*
X90590476Y-42400000D01*
X90685714Y-42352381D01*
X90923810Y-42352381D01*
X91019048Y-42400000D01*
X91066667Y-42447619D01*
X91114286Y-42542857D01*
X91114286Y-42638095D01*
X91066667Y-42780952D01*
X90495238Y-43352381D01*
X91114286Y-43352381D01*
X88514286Y-38252381D02*
X88514286Y-37252381D01*
X88514286Y-37728571D02*
X89085715Y-37728571D01*
X89085715Y-38252381D02*
X89085715Y-37252381D01*
X89752381Y-37252381D02*
X89942858Y-37252381D01*
X90038096Y-37300000D01*
X90133334Y-37395238D01*
X90180953Y-37585714D01*
X90180953Y-37919048D01*
X90133334Y-38109524D01*
X90038096Y-38204762D01*
X89942858Y-38252381D01*
X89752381Y-38252381D01*
X89657143Y-38204762D01*
X89561905Y-38109524D01*
X89514286Y-37919048D01*
X89514286Y-37585714D01*
X89561905Y-37395238D01*
X89657143Y-37300000D01*
X89752381Y-37252381D01*
X90561905Y-37347619D02*
X90609524Y-37300000D01*
X90704762Y-37252381D01*
X90942858Y-37252381D01*
X91038096Y-37300000D01*
X91085715Y-37347619D01*
X91133334Y-37442857D01*
X91133334Y-37538095D01*
X91085715Y-37680952D01*
X90514286Y-38252381D01*
X91133334Y-38252381D01*
X88561905Y-35752381D02*
X88561905Y-34752381D01*
X88561905Y-35228571D02*
X89133334Y-35228571D01*
X89133334Y-35752381D02*
X89133334Y-34752381D01*
X89561905Y-35704762D02*
X89704762Y-35752381D01*
X89942858Y-35752381D01*
X90038096Y-35704762D01*
X90085715Y-35657143D01*
X90133334Y-35561905D01*
X90133334Y-35466667D01*
X90085715Y-35371429D01*
X90038096Y-35323810D01*
X89942858Y-35276190D01*
X89752381Y-35228571D01*
X89657143Y-35180952D01*
X89609524Y-35133333D01*
X89561905Y-35038095D01*
X89561905Y-34942857D01*
X89609524Y-34847619D01*
X89657143Y-34800000D01*
X89752381Y-34752381D01*
X89990477Y-34752381D01*
X90133334Y-34800000D01*
X90514286Y-34847619D02*
X90561905Y-34800000D01*
X90657143Y-34752381D01*
X90895239Y-34752381D01*
X90990477Y-34800000D01*
X91038096Y-34847619D01*
X91085715Y-34942857D01*
X91085715Y-35038095D01*
X91038096Y-35180952D01*
X90466667Y-35752381D01*
X91085715Y-35752381D01*
D11*
X210350000Y-25003571D02*
X210350000Y-23503571D01*
X211207143Y-25003571D01*
X211207143Y-23503571D01*
X211707143Y-23503571D02*
X212564286Y-23503571D01*
X212135715Y-25003571D02*
X212135715Y-23503571D01*
X213921429Y-24860714D02*
X213850000Y-24932143D01*
X213635714Y-25003571D01*
X213492857Y-25003571D01*
X213278572Y-24932143D01*
X213135714Y-24789286D01*
X213064286Y-24646429D01*
X212992857Y-24360714D01*
X212992857Y-24146429D01*
X213064286Y-23860714D01*
X213135714Y-23717857D01*
X213278572Y-23575000D01*
X213492857Y-23503571D01*
X213635714Y-23503571D01*
X213850000Y-23575000D01*
X213921429Y-23646429D01*
X203885715Y-27553571D02*
X203885715Y-26053571D01*
X204457143Y-26053571D01*
X204600001Y-26125000D01*
X204671429Y-26196429D01*
X204742858Y-26339286D01*
X204742858Y-26553571D01*
X204671429Y-26696429D01*
X204600001Y-26767857D01*
X204457143Y-26839286D01*
X203885715Y-26839286D01*
X205600001Y-27553571D02*
X205457143Y-27482143D01*
X205385715Y-27410714D01*
X205314286Y-27267857D01*
X205314286Y-26839286D01*
X205385715Y-26696429D01*
X205457143Y-26625000D01*
X205600001Y-26553571D01*
X205814286Y-26553571D01*
X205957143Y-26625000D01*
X206028572Y-26696429D01*
X206100001Y-26839286D01*
X206100001Y-27267857D01*
X206028572Y-27410714D01*
X205957143Y-27482143D01*
X205814286Y-27553571D01*
X205600001Y-27553571D01*
X206600001Y-26553571D02*
X206885715Y-27553571D01*
X207171429Y-26839286D01*
X207457144Y-27553571D01*
X207742858Y-26553571D01*
X208885715Y-27482143D02*
X208742858Y-27553571D01*
X208457144Y-27553571D01*
X208314287Y-27482143D01*
X208242858Y-27339286D01*
X208242858Y-26767857D01*
X208314287Y-26625000D01*
X208457144Y-26553571D01*
X208742858Y-26553571D01*
X208885715Y-26625000D01*
X208957144Y-26767857D01*
X208957144Y-26910714D01*
X208242858Y-27053571D01*
X209600001Y-27553571D02*
X209600001Y-26553571D01*
X209600001Y-26839286D02*
X209671429Y-26696429D01*
X209742858Y-26625000D01*
X209885715Y-26553571D01*
X210028572Y-26553571D01*
X211671429Y-27553571D02*
X211671429Y-26053571D01*
X212028572Y-26053571D01*
X212242857Y-26125000D01*
X212385715Y-26267857D01*
X212457143Y-26410714D01*
X212528572Y-26696429D01*
X212528572Y-26910714D01*
X212457143Y-27196429D01*
X212385715Y-27339286D01*
X212242857Y-27482143D01*
X212028572Y-27553571D01*
X211671429Y-27553571D01*
X213742857Y-27482143D02*
X213600000Y-27553571D01*
X213314286Y-27553571D01*
X213171429Y-27482143D01*
X213100000Y-27339286D01*
X213100000Y-26767857D01*
X213171429Y-26625000D01*
X213314286Y-26553571D01*
X213600000Y-26553571D01*
X213742857Y-26625000D01*
X213814286Y-26767857D01*
X213814286Y-26910714D01*
X213100000Y-27053571D01*
X214457143Y-27553571D02*
X214457143Y-26553571D01*
X214457143Y-26839286D02*
X214528571Y-26696429D01*
X214600000Y-26625000D01*
X214742857Y-26553571D01*
X214885714Y-26553571D01*
X216028571Y-27553571D02*
X216028571Y-26767857D01*
X215957142Y-26625000D01*
X215814285Y-26553571D01*
X215528571Y-26553571D01*
X215385714Y-26625000D01*
X216028571Y-27482143D02*
X215885714Y-27553571D01*
X215528571Y-27553571D01*
X215385714Y-27482143D01*
X215314285Y-27339286D01*
X215314285Y-27196429D01*
X215385714Y-27053571D01*
X215528571Y-26982143D01*
X215885714Y-26982143D01*
X216028571Y-26910714D01*
X216528571Y-26553571D02*
X217100000Y-26553571D01*
X216742857Y-26053571D02*
X216742857Y-27339286D01*
X216814285Y-27482143D01*
X216957143Y-27553571D01*
X217100000Y-27553571D01*
X217600000Y-27553571D02*
X217600000Y-26553571D01*
X217600000Y-26053571D02*
X217528571Y-26125000D01*
X217600000Y-26196429D01*
X217671428Y-26125000D01*
X217600000Y-26053571D01*
X217600000Y-26196429D01*
X218314286Y-26553571D02*
X218314286Y-27553571D01*
X218314286Y-26696429D02*
X218385714Y-26625000D01*
X218528572Y-26553571D01*
X218742857Y-26553571D01*
X218885714Y-26625000D01*
X218957143Y-26767857D01*
X218957143Y-27553571D01*
X220314286Y-26553571D02*
X220314286Y-27767857D01*
X220242857Y-27910714D01*
X220171429Y-27982143D01*
X220028572Y-28053571D01*
X219814286Y-28053571D01*
X219671429Y-27982143D01*
X220314286Y-27482143D02*
X220171429Y-27553571D01*
X219885715Y-27553571D01*
X219742857Y-27482143D01*
X219671429Y-27410714D01*
X219600000Y-27267857D01*
X219600000Y-26839286D01*
X219671429Y-26696429D01*
X219742857Y-26625000D01*
X219885715Y-26553571D01*
X220171429Y-26553571D01*
X220314286Y-26625000D01*
X148621429Y-28178571D02*
X148621429Y-26678571D01*
X149478572Y-28178571D01*
X149478572Y-26678571D01*
X149978572Y-26678571D02*
X150835715Y-26678571D01*
X150407144Y-28178571D02*
X150407144Y-26678571D01*
X152192858Y-28035714D02*
X152121429Y-28107143D01*
X151907143Y-28178571D01*
X151764286Y-28178571D01*
X151550001Y-28107143D01*
X151407143Y-27964286D01*
X151335715Y-27821429D01*
X151264286Y-27535714D01*
X151264286Y-27321429D01*
X151335715Y-27035714D01*
X151407143Y-26892857D01*
X151550001Y-26750000D01*
X151764286Y-26678571D01*
X151907143Y-26678571D01*
X152121429Y-26750000D01*
X152192858Y-26821429D01*
X152835715Y-27607143D02*
X153978572Y-27607143D01*
X155192858Y-27392857D02*
X154692858Y-27392857D01*
X154692858Y-28178571D02*
X154692858Y-26678571D01*
X155407144Y-26678571D01*
X156621429Y-28178571D02*
X156621429Y-27392857D01*
X156550000Y-27250000D01*
X156407143Y-27178571D01*
X156121429Y-27178571D01*
X155978572Y-27250000D01*
X156621429Y-28107143D02*
X156478572Y-28178571D01*
X156121429Y-28178571D01*
X155978572Y-28107143D01*
X155907143Y-27964286D01*
X155907143Y-27821429D01*
X155978572Y-27678571D01*
X156121429Y-27607143D01*
X156478572Y-27607143D01*
X156621429Y-27535714D01*
X157335715Y-27178571D02*
X157335715Y-28178571D01*
X157335715Y-27321429D02*
X157407143Y-27250000D01*
X157550001Y-27178571D01*
X157764286Y-27178571D01*
X157907143Y-27250000D01*
X157978572Y-27392857D01*
X157978572Y-28178571D01*
X264328572Y-114707143D02*
X265471429Y-114707143D01*
X264900000Y-115278571D02*
X264900000Y-114135714D01*
X264328572Y-119807143D02*
X265471429Y-119807143D01*
X263528572Y-127007143D02*
X264671429Y-127007143D01*
X264100000Y-127578571D02*
X264100000Y-126435714D01*
X263628572Y-132207143D02*
X264771429Y-132207143D01*
X21428572Y-140107143D02*
X22571429Y-140107143D01*
X21428572Y-135007143D02*
X22571429Y-135007143D01*
X22000000Y-135578571D02*
X22000000Y-134435714D01*
X21428572Y-127207143D02*
X22571429Y-127207143D01*
X21528572Y-122407143D02*
X22671429Y-122407143D01*
X22100000Y-122978571D02*
X22100000Y-121835714D01*
X36892858Y-51378571D02*
X36892858Y-49878571D01*
X37607144Y-50378571D02*
X37607144Y-51878571D01*
X37607144Y-50450000D02*
X37750001Y-50378571D01*
X38035715Y-50378571D01*
X38178572Y-50450000D01*
X38250001Y-50521429D01*
X38321430Y-50664286D01*
X38321430Y-51092857D01*
X38250001Y-51235714D01*
X38178572Y-51307143D01*
X38035715Y-51378571D01*
X37750001Y-51378571D01*
X37607144Y-51307143D01*
X38964287Y-51378571D02*
X38964287Y-50378571D01*
X38964287Y-50664286D02*
X39035715Y-50521429D01*
X39107144Y-50450000D01*
X39250001Y-50378571D01*
X39392858Y-50378571D01*
X39892858Y-51378571D02*
X39892858Y-50378571D01*
X39892858Y-49878571D02*
X39821429Y-49950000D01*
X39892858Y-50021429D01*
X39964286Y-49950000D01*
X39892858Y-49878571D01*
X39892858Y-50021429D01*
X40607144Y-51378571D02*
X40607144Y-50378571D01*
X40607144Y-50521429D02*
X40678572Y-50450000D01*
X40821430Y-50378571D01*
X41035715Y-50378571D01*
X41178572Y-50450000D01*
X41250001Y-50592857D01*
X41250001Y-51378571D01*
X41250001Y-50592857D02*
X41321430Y-50450000D01*
X41464287Y-50378571D01*
X41678572Y-50378571D01*
X41821430Y-50450000D01*
X41892858Y-50592857D01*
X41892858Y-51378571D01*
X43178572Y-51307143D02*
X43035715Y-51378571D01*
X42750001Y-51378571D01*
X42607144Y-51307143D01*
X42535715Y-51164286D01*
X42535715Y-50592857D01*
X42607144Y-50450000D01*
X42750001Y-50378571D01*
X43035715Y-50378571D01*
X43178572Y-50450000D01*
X43250001Y-50592857D01*
X43250001Y-50735714D01*
X42535715Y-50878571D01*
X43892858Y-51378571D02*
X43892858Y-50378571D01*
X43892858Y-50664286D02*
X43964286Y-50521429D01*
X44035715Y-50450000D01*
X44178572Y-50378571D01*
X44321429Y-50378571D01*
X36828572Y-44878571D02*
X37328572Y-46378571D01*
X37828572Y-44878571D01*
X38257143Y-46307143D02*
X38400000Y-46378571D01*
X38685715Y-46378571D01*
X38828572Y-46307143D01*
X38900000Y-46164286D01*
X38900000Y-46092857D01*
X38828572Y-45950000D01*
X38685715Y-45878571D01*
X38471429Y-45878571D01*
X38328572Y-45807143D01*
X38257143Y-45664286D01*
X38257143Y-45592857D01*
X38328572Y-45450000D01*
X38471429Y-45378571D01*
X38685715Y-45378571D01*
X38828572Y-45450000D01*
X40185715Y-45378571D02*
X40185715Y-46378571D01*
X39542858Y-45378571D02*
X39542858Y-46164286D01*
X39614286Y-46307143D01*
X39757144Y-46378571D01*
X39971429Y-46378571D01*
X40114286Y-46307143D01*
X40185715Y-46235714D01*
X40900001Y-45378571D02*
X40900001Y-46878571D01*
X40900001Y-45450000D02*
X41042858Y-45378571D01*
X41328572Y-45378571D01*
X41471429Y-45450000D01*
X41542858Y-45521429D01*
X41614287Y-45664286D01*
X41614287Y-46092857D01*
X41542858Y-46235714D01*
X41471429Y-46307143D01*
X41328572Y-46378571D01*
X41042858Y-46378571D01*
X40900001Y-46307143D01*
X42828572Y-46307143D02*
X42685715Y-46378571D01*
X42400001Y-46378571D01*
X42257144Y-46307143D01*
X42185715Y-46164286D01*
X42185715Y-45592857D01*
X42257144Y-45450000D01*
X42400001Y-45378571D01*
X42685715Y-45378571D01*
X42828572Y-45450000D01*
X42900001Y-45592857D01*
X42900001Y-45735714D01*
X42185715Y-45878571D01*
X43542858Y-46378571D02*
X43542858Y-45378571D01*
X43542858Y-45664286D02*
X43614286Y-45521429D01*
X43685715Y-45450000D01*
X43828572Y-45378571D01*
X43971429Y-45378571D01*
X45114286Y-46307143D02*
X44971429Y-46378571D01*
X44685715Y-46378571D01*
X44542857Y-46307143D01*
X44471429Y-46235714D01*
X44400000Y-46092857D01*
X44400000Y-45664286D01*
X44471429Y-45521429D01*
X44542857Y-45450000D01*
X44685715Y-45378571D01*
X44971429Y-45378571D01*
X45114286Y-45450000D01*
X46400000Y-46378571D02*
X46400000Y-45592857D01*
X46328571Y-45450000D01*
X46185714Y-45378571D01*
X45900000Y-45378571D01*
X45757143Y-45450000D01*
X46400000Y-46307143D02*
X46257143Y-46378571D01*
X45900000Y-46378571D01*
X45757143Y-46307143D01*
X45685714Y-46164286D01*
X45685714Y-46021429D01*
X45757143Y-45878571D01*
X45900000Y-45807143D01*
X46257143Y-45807143D01*
X46400000Y-45735714D01*
X47114286Y-45378571D02*
X47114286Y-46878571D01*
X47114286Y-45450000D02*
X47257143Y-45378571D01*
X47542857Y-45378571D01*
X47685714Y-45450000D01*
X47757143Y-45521429D01*
X47828572Y-45664286D01*
X47828572Y-46092857D01*
X47757143Y-46235714D01*
X47685714Y-46307143D01*
X47542857Y-46378571D01*
X47257143Y-46378571D01*
X47114286Y-46307143D01*
X37235714Y-39778571D02*
X37521428Y-39778571D01*
X37664286Y-39850000D01*
X37807143Y-39992857D01*
X37878571Y-40278571D01*
X37878571Y-40778571D01*
X37807143Y-41064286D01*
X37664286Y-41207143D01*
X37521428Y-41278571D01*
X37235714Y-41278571D01*
X37092857Y-41207143D01*
X36950000Y-41064286D01*
X36878571Y-40778571D01*
X36878571Y-40278571D01*
X36950000Y-39992857D01*
X37092857Y-39850000D01*
X37235714Y-39778571D01*
X38521429Y-40278571D02*
X38521429Y-41278571D01*
X38521429Y-40421429D02*
X38592857Y-40350000D01*
X38735715Y-40278571D01*
X38950000Y-40278571D01*
X39092857Y-40350000D01*
X39164286Y-40492857D01*
X39164286Y-41278571D01*
X40164286Y-39778571D02*
X40450000Y-39778571D01*
X40592858Y-39850000D01*
X40735715Y-39992857D01*
X40807143Y-40278571D01*
X40807143Y-40778571D01*
X40735715Y-41064286D01*
X40592858Y-41207143D01*
X40450000Y-41278571D01*
X40164286Y-41278571D01*
X40021429Y-41207143D01*
X39878572Y-41064286D01*
X39807143Y-40778571D01*
X39807143Y-40278571D01*
X39878572Y-39992857D01*
X40021429Y-39850000D01*
X40164286Y-39778571D01*
X41235715Y-40278571D02*
X41807144Y-40278571D01*
X41450001Y-41278571D02*
X41450001Y-39992857D01*
X41521429Y-39850000D01*
X41664287Y-39778571D01*
X41807144Y-39778571D01*
X42092858Y-40278571D02*
X42664287Y-40278571D01*
X42307144Y-41278571D02*
X42307144Y-39992857D01*
X42378572Y-39850000D01*
X42521430Y-39778571D01*
X42664287Y-39778571D01*
X37657143Y-34850000D02*
X37514286Y-34778571D01*
X37300000Y-34778571D01*
X37085715Y-34850000D01*
X36942857Y-34992857D01*
X36871429Y-35135714D01*
X36800000Y-35421429D01*
X36800000Y-35635714D01*
X36871429Y-35921429D01*
X36942857Y-36064286D01*
X37085715Y-36207143D01*
X37300000Y-36278571D01*
X37442857Y-36278571D01*
X37657143Y-36207143D01*
X37728572Y-36135714D01*
X37728572Y-35635714D01*
X37442857Y-35635714D01*
X38371429Y-36278571D02*
X38371429Y-34778571D01*
X39228572Y-36278571D01*
X39228572Y-34778571D01*
X39942858Y-36278571D02*
X39942858Y-34778571D01*
X40300001Y-34778571D01*
X40514286Y-34850000D01*
X40657144Y-34992857D01*
X40728572Y-35135714D01*
X40800001Y-35421429D01*
X40800001Y-35635714D01*
X40728572Y-35921429D01*
X40657144Y-36064286D01*
X40514286Y-36207143D01*
X40300001Y-36278571D01*
X39942858Y-36278571D01*
X196028572Y-26792857D02*
X195528572Y-26792857D01*
X195528572Y-27578571D02*
X195528572Y-26078571D01*
X196242858Y-26078571D01*
X197457143Y-27578571D02*
X197457143Y-26792857D01*
X197385714Y-26650000D01*
X197242857Y-26578571D01*
X196957143Y-26578571D01*
X196814286Y-26650000D01*
X197457143Y-27507143D02*
X197314286Y-27578571D01*
X196957143Y-27578571D01*
X196814286Y-27507143D01*
X196742857Y-27364286D01*
X196742857Y-27221429D01*
X196814286Y-27078571D01*
X196957143Y-27007143D01*
X197314286Y-27007143D01*
X197457143Y-26935714D01*
X198171429Y-26578571D02*
X198171429Y-27578571D01*
X198171429Y-26721429D02*
X198242857Y-26650000D01*
X198385715Y-26578571D01*
X198600000Y-26578571D01*
X198742857Y-26650000D01*
X198814286Y-26792857D01*
X198814286Y-27578571D01*
X199528572Y-27007143D02*
X200671429Y-27007143D01*
X188528572Y-26692857D02*
X188028572Y-26692857D01*
X188028572Y-27478571D02*
X188028572Y-25978571D01*
X188742858Y-25978571D01*
X189957143Y-27478571D02*
X189957143Y-26692857D01*
X189885714Y-26550000D01*
X189742857Y-26478571D01*
X189457143Y-26478571D01*
X189314286Y-26550000D01*
X189957143Y-27407143D02*
X189814286Y-27478571D01*
X189457143Y-27478571D01*
X189314286Y-27407143D01*
X189242857Y-27264286D01*
X189242857Y-27121429D01*
X189314286Y-26978571D01*
X189457143Y-26907143D01*
X189814286Y-26907143D01*
X189957143Y-26835714D01*
X190671429Y-26478571D02*
X190671429Y-27478571D01*
X190671429Y-26621429D02*
X190742857Y-26550000D01*
X190885715Y-26478571D01*
X191100000Y-26478571D01*
X191242857Y-26550000D01*
X191314286Y-26692857D01*
X191314286Y-27478571D01*
X192028572Y-26907143D02*
X193171429Y-26907143D01*
X192600000Y-27478571D02*
X192600000Y-26335714D01*
M02*
