G04 #@! TF.FileFunction,Soldermask,Top*
%FSLAX46Y46*%
G04 Gerber Fmt 4.6, Leading zero omitted, Abs format (unit mm)*
G04 Created by KiCad (PCBNEW 4.0.3+e1-6302~38~ubuntu16.04.1-stable) date Tue Aug 30 03:26:48 2016*
%MOMM*%
%LPD*%
G01*
G04 APERTURE LIST*
%ADD10C,0.100000*%
%ADD11R,1.450000X0.450000*%
%ADD12R,3.500000X3.500000*%
%ADD13R,1.000000X1.250000*%
%ADD14R,1.250000X1.000000*%
%ADD15C,2.000000*%
%ADD16O,3.962400X1.981200*%
%ADD17C,1.300000*%
%ADD18R,1.300000X1.300000*%
%ADD19R,0.910000X1.220000*%
%ADD20R,1.220000X0.910000*%
%ADD21R,1.198880X1.198880*%
%ADD22C,3.000000*%
%ADD23O,1.981200X3.962400*%
%ADD24O,2.540000X2.032000*%
%ADD25R,0.700000X1.300000*%
%ADD26R,1.300000X0.700000*%
%ADD27R,1.700000X0.900000*%
%ADD28R,0.900000X1.700000*%
%ADD29R,0.450000X1.500000*%
%ADD30R,5.500000X3.000000*%
%ADD31R,0.508000X1.143000*%
%ADD32R,0.899160X1.998980*%
%ADD33R,1.000760X1.998980*%
%ADD34R,0.599440X1.000760*%
%ADD35R,0.450000X1.450000*%
%ADD36R,4.500000X2.150000*%
%ADD37R,2.150000X4.500000*%
%ADD38R,2.700000X3.200000*%
%ADD39O,3.014980X1.506220*%
%ADD40O,2.499360X1.501140*%
%ADD41R,3.200000X2.700000*%
%ADD42R,2.499360X1.501140*%
%ADD43O,1.501140X2.499360*%
%ADD44C,7.000000*%
%ADD45C,0.254000*%
G04 APERTURE END LIST*
D10*
D11*
X28656535Y-89982697D03*
X28656535Y-90632697D03*
X28656535Y-91282697D03*
X28656535Y-91932697D03*
X34556535Y-91932697D03*
X34556535Y-91282697D03*
X34556535Y-90632697D03*
X34556535Y-89982697D03*
D12*
X138065504Y-94908642D03*
X138065504Y-100008642D03*
X138065504Y-105108642D03*
X138065504Y-110208642D03*
X138065504Y-115308642D03*
X138065504Y-120408642D03*
X138065504Y-125508642D03*
X138065504Y-130608642D03*
X184065504Y-130608642D03*
X184065504Y-125508642D03*
X184065504Y-120408642D03*
X184065504Y-115308642D03*
X184065504Y-110208642D03*
X184065504Y-105108642D03*
X184065504Y-100008642D03*
X184065504Y-94908642D03*
D13*
X78225858Y-48270534D03*
X76225858Y-48270534D03*
D14*
X101665504Y-35108642D03*
X101665504Y-37108642D03*
D15*
X239073504Y-97106642D03*
X239073504Y-92106642D03*
X239073504Y-89906642D03*
X201173504Y-90656642D03*
X201173504Y-85656642D03*
D16*
X255665504Y-127208642D03*
X255665504Y-132208642D03*
D13*
X25906535Y-74457697D03*
X23906535Y-74457697D03*
X25865504Y-94808642D03*
X23865504Y-94808642D03*
D14*
X31072511Y-94728091D03*
X31072511Y-96728091D03*
X33172511Y-94728091D03*
X33172511Y-96728091D03*
X35265504Y-94728091D03*
X35265504Y-96728091D03*
D13*
X78065504Y-36908642D03*
X80065504Y-36908642D03*
D14*
X101665504Y-31437588D03*
X101665504Y-33437588D03*
D13*
X103565504Y-51008642D03*
X101565504Y-51008642D03*
D14*
X104165504Y-35108642D03*
X104165504Y-37108642D03*
X108765504Y-32308642D03*
X108765504Y-34308642D03*
D13*
X82565504Y-41108642D03*
X84565504Y-41108642D03*
X108765504Y-50908642D03*
X110765504Y-50908642D03*
X78165504Y-52608642D03*
X76165504Y-52608642D03*
D14*
X90065504Y-103208642D03*
X90065504Y-105208642D03*
X87565504Y-103208642D03*
X87565504Y-105208642D03*
D13*
X135365504Y-59708642D03*
X133365504Y-59708642D03*
X160002719Y-151053213D03*
X162002719Y-151053213D03*
X241065504Y-57708642D03*
X243065504Y-57708642D03*
D14*
X241625504Y-74698642D03*
X241625504Y-72698642D03*
X257125504Y-67906642D03*
X257125504Y-69906642D03*
X261425504Y-69906642D03*
X261425504Y-67906642D03*
X222773504Y-79506642D03*
X222773504Y-77506642D03*
X220773504Y-79506642D03*
X220773504Y-77506642D03*
D13*
X227165504Y-55408642D03*
X229165504Y-55408642D03*
X226465504Y-63108642D03*
X228465504Y-63108642D03*
D14*
X233773504Y-79506642D03*
X233773504Y-77506642D03*
X235773504Y-79506642D03*
X235773504Y-77506642D03*
X217165504Y-61608642D03*
X217165504Y-59608642D03*
X215065504Y-59608642D03*
X215065504Y-61608642D03*
D13*
X250797504Y-98128642D03*
X252797504Y-98128642D03*
X250797504Y-96128642D03*
X252797504Y-96128642D03*
D14*
X31965504Y-64308642D03*
X31965504Y-66308642D03*
X29965504Y-64308642D03*
X29965504Y-66308642D03*
X37365504Y-64308642D03*
X37365504Y-66308642D03*
X35365504Y-64308642D03*
X35365504Y-66308642D03*
X172965504Y-63108642D03*
X172965504Y-61108642D03*
X162065504Y-51508642D03*
X162065504Y-53508642D03*
D13*
X150448124Y-58131726D03*
X152448124Y-58131726D03*
X150448124Y-60231726D03*
X152448124Y-60231726D03*
X115698384Y-129565512D03*
X117698384Y-129565512D03*
X117665504Y-152708642D03*
X115665504Y-152708642D03*
X152465504Y-62308642D03*
X150465504Y-62308642D03*
X108165504Y-154508642D03*
X106165504Y-154508642D03*
X108259623Y-129095823D03*
X106259623Y-129095823D03*
X115949606Y-100921954D03*
X117949606Y-100921954D03*
X117769530Y-78515544D03*
X115769530Y-78515544D03*
X108249606Y-92721954D03*
X106249606Y-92721954D03*
X108169530Y-70215544D03*
X106169530Y-70215544D03*
X140665504Y-57108642D03*
X138665504Y-57108642D03*
X138665504Y-65508642D03*
X140665504Y-65508642D03*
X135265504Y-62108642D03*
X133265504Y-62108642D03*
X135265504Y-57308642D03*
X133265504Y-57308642D03*
X172965504Y-50008642D03*
X174965504Y-50008642D03*
X174965504Y-56308642D03*
X172965504Y-56308642D03*
X160002719Y-153153213D03*
X162002719Y-153153213D03*
D17*
X234473504Y-126106642D03*
D18*
X234473504Y-128606642D03*
D17*
X234473504Y-109106642D03*
D18*
X234473504Y-111606642D03*
D17*
X234473504Y-117806642D03*
D18*
X234473504Y-120306642D03*
D17*
X234573504Y-134206642D03*
D18*
X234573504Y-136706642D03*
D17*
X242073504Y-126206642D03*
D18*
X242073504Y-128706642D03*
D17*
X242073504Y-134206642D03*
D18*
X242073504Y-136706642D03*
D17*
X242073504Y-117806642D03*
D18*
X242073504Y-120306642D03*
D17*
X242073504Y-109106642D03*
D18*
X242073504Y-111606642D03*
D19*
X141800504Y-74508642D03*
X138530504Y-74508642D03*
D20*
X243825504Y-74933642D03*
X243825504Y-71663642D03*
D21*
X232765504Y-148659622D03*
X232765504Y-150757662D03*
X232765504Y-145692642D03*
X232765504Y-143594602D03*
D22*
X220073504Y-107206642D03*
X220073504Y-137206642D03*
X215073504Y-137206642D03*
X215073504Y-107206642D03*
X225073504Y-107206642D03*
X225073504Y-137206642D03*
D16*
X29665504Y-50608642D03*
X29665504Y-45608642D03*
X29665504Y-35608642D03*
X29665504Y-40608642D03*
X29365504Y-127008642D03*
X29365504Y-122008642D03*
D23*
X214000000Y-35900000D03*
X209000000Y-35900000D03*
D16*
X255667504Y-114644642D03*
X255667504Y-119644642D03*
D23*
X155865504Y-35308642D03*
X150865504Y-35308642D03*
X190765504Y-35808642D03*
X195765504Y-35808642D03*
D16*
X29365504Y-140008642D03*
X29365504Y-135008642D03*
D24*
X134965504Y-68908642D03*
X134965504Y-66368642D03*
X134965504Y-71448642D03*
X182165504Y-66408642D03*
X182165504Y-68948642D03*
X182165504Y-63868642D03*
D25*
X27656535Y-74457697D03*
X29556535Y-74457697D03*
D26*
X37865504Y-84158642D03*
X37865504Y-82258642D03*
X37865504Y-87458642D03*
X37865504Y-85558642D03*
D25*
X24215504Y-92608642D03*
X26115504Y-92608642D03*
D27*
X65465504Y-54258642D03*
X65465504Y-51358642D03*
X65465504Y-49558642D03*
X65465504Y-46658642D03*
X65465504Y-44758642D03*
X65465504Y-41858642D03*
X68065504Y-54258642D03*
X68065504Y-51358642D03*
X68165504Y-49558642D03*
X68165504Y-46658642D03*
X68165504Y-44658642D03*
X68165504Y-41758642D03*
D26*
X28265504Y-96858642D03*
X28265504Y-94958642D03*
X71065504Y-42858642D03*
X71065504Y-44758642D03*
D25*
X78315504Y-39108642D03*
X80215504Y-39108642D03*
X78315504Y-43408642D03*
X80215504Y-43408642D03*
X84715504Y-38908642D03*
X82815504Y-38908642D03*
X80215504Y-41208642D03*
X78315504Y-41208642D03*
D26*
X104165504Y-31687588D03*
X104165504Y-33587588D03*
X106365504Y-35458642D03*
X106365504Y-37358642D03*
X106365504Y-31758642D03*
X106365504Y-33658642D03*
D25*
X82815504Y-43308642D03*
X84715504Y-43308642D03*
D26*
X111065504Y-35458642D03*
X111065504Y-37358642D03*
D25*
X115615504Y-47408642D03*
X113715504Y-47408642D03*
X78315504Y-50408642D03*
X76415504Y-50408642D03*
D26*
X116265504Y-43637588D03*
X116265504Y-45537588D03*
D25*
X140515504Y-72308642D03*
X138615504Y-72308642D03*
X140565504Y-70208642D03*
X138665504Y-70208642D03*
X140415504Y-63408642D03*
X138515504Y-63408642D03*
D26*
X246025504Y-72948642D03*
X246025504Y-74848642D03*
X248125504Y-74848642D03*
X248125504Y-72948642D03*
D27*
X248325504Y-79748642D03*
X248325504Y-76848642D03*
X241325504Y-79748642D03*
X241325504Y-76848642D03*
X243825504Y-79748642D03*
X243825504Y-76848642D03*
D26*
X263525504Y-70056642D03*
X263525504Y-68156642D03*
X259225504Y-70056642D03*
X259225504Y-68156642D03*
D27*
X258125504Y-79856642D03*
X258125504Y-76956642D03*
X263125504Y-79856642D03*
X263125504Y-76956642D03*
X263125504Y-72256642D03*
X263125504Y-75156642D03*
X258125504Y-72256642D03*
X258125504Y-75156642D03*
X255625504Y-79856642D03*
X255625504Y-76956642D03*
X260625504Y-79856642D03*
X260625504Y-76956642D03*
X260625504Y-75156642D03*
X260625504Y-72256642D03*
X255625504Y-75156642D03*
X255625504Y-72256642D03*
D25*
X229065504Y-51008642D03*
X227165504Y-51008642D03*
X228965504Y-53208642D03*
X227065504Y-53208642D03*
X228615504Y-67908642D03*
X226715504Y-67908642D03*
X228615504Y-65808642D03*
X226715504Y-65808642D03*
X227015504Y-57508642D03*
X228915504Y-57508642D03*
X226715504Y-61008642D03*
X228615504Y-61008642D03*
X222261504Y-54744642D03*
X224161504Y-54744642D03*
X218893504Y-54744642D03*
X220793504Y-54744642D03*
X221265504Y-68508642D03*
X223165504Y-68508642D03*
X221265504Y-66408642D03*
X223165504Y-66408642D03*
X224111504Y-52558642D03*
X222211504Y-52558642D03*
X221265504Y-70608642D03*
X223165504Y-70608642D03*
X218909504Y-52558642D03*
X220809504Y-52558642D03*
D26*
X172965504Y-64758642D03*
X172965504Y-66658642D03*
D25*
X163265504Y-69308642D03*
X165165504Y-69308642D03*
X159915504Y-69308642D03*
X161815504Y-69308642D03*
D26*
X164165504Y-51358642D03*
X164165504Y-53258642D03*
D28*
X115815504Y-125008642D03*
X118715504Y-125008642D03*
X115815504Y-120008642D03*
X118715504Y-120008642D03*
X115715504Y-148408642D03*
X118615504Y-148408642D03*
X115715504Y-143408642D03*
X118615504Y-143408642D03*
D25*
X152215504Y-64408642D03*
X150315504Y-64408642D03*
X117648384Y-127368354D03*
X115748384Y-127368354D03*
X115665504Y-150708642D03*
X117565504Y-150708642D03*
X101415504Y-53108642D03*
X103315504Y-53108642D03*
D28*
X115619530Y-74115544D03*
X118519530Y-74115544D03*
X115519530Y-69315544D03*
X118419530Y-69315544D03*
X115899606Y-96521954D03*
X118799606Y-96521954D03*
X115799606Y-91621954D03*
X118699606Y-91621954D03*
D25*
X117699606Y-98821954D03*
X115799606Y-98821954D03*
X115615504Y-76415544D03*
X117515504Y-76415544D03*
X109015504Y-53108642D03*
X110915504Y-53108642D03*
D27*
X235417504Y-151142642D03*
X235417504Y-148242642D03*
X237917504Y-148242642D03*
X237917504Y-151142642D03*
X240417504Y-151142642D03*
X240417504Y-148242642D03*
X235417504Y-143242642D03*
X235417504Y-146142642D03*
X237917504Y-146142642D03*
X237917504Y-143242642D03*
X240417504Y-143242642D03*
X240417504Y-146142642D03*
D25*
X140615504Y-68108642D03*
X138715504Y-68108642D03*
X140365504Y-59208642D03*
X138465504Y-59208642D03*
X140415504Y-61308642D03*
X138515504Y-61308642D03*
X175115504Y-54208642D03*
X173215504Y-54208642D03*
X173215504Y-52108642D03*
X175115504Y-52108642D03*
X182915504Y-57858642D03*
X184815504Y-57858642D03*
X184815504Y-46908642D03*
X182915504Y-46908642D03*
X184815504Y-55708642D03*
X182915504Y-55708642D03*
X184815504Y-51508642D03*
X182915504Y-51508642D03*
X182915504Y-53608642D03*
X184815504Y-53608642D03*
D27*
X250825504Y-79748642D03*
X250825504Y-76848642D03*
X242917504Y-148242642D03*
X242917504Y-151142642D03*
X245417504Y-151142642D03*
X245417504Y-148242642D03*
X242917504Y-146142642D03*
X242917504Y-143242642D03*
X245417504Y-143242642D03*
X245417504Y-146142642D03*
D25*
X182915504Y-49008642D03*
X184815504Y-49008642D03*
D26*
X178865504Y-67058642D03*
X178865504Y-68958642D03*
D25*
X24156535Y-72357697D03*
X26056535Y-72357697D03*
D26*
X175065504Y-60958642D03*
X175065504Y-62858642D03*
D25*
X135215504Y-54808642D03*
X133315504Y-54808642D03*
D26*
X106065504Y-50958642D03*
X106065504Y-52858642D03*
D29*
X110912836Y-40837588D03*
X110262836Y-40837588D03*
X109612836Y-40837588D03*
X108962836Y-40837588D03*
X108312836Y-40837588D03*
X107662836Y-40837588D03*
X107012836Y-40837588D03*
X106362836Y-40837588D03*
X105712836Y-40837588D03*
X105062836Y-40837588D03*
X104412836Y-40837588D03*
X103762836Y-40837588D03*
X103112836Y-40837588D03*
X102462836Y-40837588D03*
X102462836Y-46637588D03*
X103112836Y-46637588D03*
X103762836Y-46637588D03*
X104412836Y-46637588D03*
X105062836Y-46637588D03*
X105712836Y-46637588D03*
X106362836Y-46637588D03*
X107012836Y-46637588D03*
X107662836Y-46637588D03*
X108312836Y-46637588D03*
X108962836Y-46637588D03*
X109612836Y-46637588D03*
X110262836Y-46637588D03*
X110912836Y-46637588D03*
D30*
X106712836Y-43737588D03*
D31*
X83870504Y-53183642D03*
X82600504Y-53183642D03*
X81330504Y-53183642D03*
X80060504Y-53183642D03*
X80060504Y-46833642D03*
X81330504Y-46833642D03*
X82600504Y-46833642D03*
X83870504Y-46833642D03*
D32*
X243614244Y-68008642D03*
D33*
X240965024Y-68008642D03*
X240965024Y-60408962D03*
X243565984Y-60408962D03*
D34*
X255675744Y-70256602D03*
X254375264Y-70256602D03*
X255025504Y-68356682D03*
D31*
X219428504Y-57351642D03*
X220698504Y-57351642D03*
X221968504Y-57351642D03*
X223238504Y-57351642D03*
X223238504Y-63701642D03*
X221968504Y-63701642D03*
X220698504Y-63701642D03*
X219428504Y-63701642D03*
D35*
X157440504Y-58358642D03*
X156790504Y-58358642D03*
X156140504Y-58358642D03*
X155490504Y-58358642D03*
X155490504Y-64258642D03*
X156140504Y-64258642D03*
X156790504Y-64258642D03*
X157440504Y-64258642D03*
D31*
X180970504Y-55983642D03*
X179700504Y-55983642D03*
X178430504Y-55983642D03*
X177160504Y-55983642D03*
X177160504Y-49633642D03*
X178430504Y-49633642D03*
X179700504Y-49633642D03*
X180970504Y-49633642D03*
D20*
X71065504Y-46173642D03*
X71065504Y-49443642D03*
D19*
X22930504Y-90308642D03*
X26200504Y-90308642D03*
D20*
X159865504Y-53643642D03*
X159865504Y-50373642D03*
D19*
X192330504Y-43608642D03*
X195600504Y-43608642D03*
X115630504Y-122508642D03*
X118900504Y-122508642D03*
X115530504Y-145908642D03*
X118800504Y-145908642D03*
X101430504Y-55308642D03*
X104700504Y-55308642D03*
X115434530Y-71715544D03*
X118704530Y-71715544D03*
X115714606Y-94121954D03*
X118984606Y-94121954D03*
X111000504Y-55308642D03*
X107730504Y-55308642D03*
D20*
X114065504Y-42302588D03*
X114065504Y-45572588D03*
D19*
X141830504Y-63308642D03*
X145100504Y-63308642D03*
X230565504Y-48608642D03*
X227295504Y-48608642D03*
X230000504Y-70108642D03*
X226730504Y-70108642D03*
D36*
X34056535Y-80342697D03*
X34056535Y-83772697D03*
X25556535Y-80342697D03*
X25556535Y-83772697D03*
D37*
X167080504Y-65473642D03*
X163650504Y-65473642D03*
X167080504Y-56973642D03*
X163650504Y-56973642D03*
D18*
X73565504Y-123708642D03*
D17*
X73565504Y-116208642D03*
D18*
X52565504Y-101708642D03*
D17*
X52565504Y-94208642D03*
D18*
X52565504Y-145408642D03*
D17*
X52565504Y-137908642D03*
D18*
X73565504Y-101208642D03*
D17*
X73565504Y-93708642D03*
D18*
X52565504Y-123208642D03*
D17*
X52565504Y-115708642D03*
D18*
X73465504Y-145608642D03*
D17*
X73465504Y-138108642D03*
D18*
X73565504Y-79708642D03*
D17*
X73565504Y-72208642D03*
D18*
X51565504Y-79708642D03*
D17*
X51565504Y-72208642D03*
D13*
X108165504Y-152508642D03*
X106165504Y-152508642D03*
X108259623Y-131095823D03*
X106259623Y-131095823D03*
X108169530Y-68115544D03*
X106169530Y-68115544D03*
X106249606Y-90721954D03*
X108249606Y-90721954D03*
D38*
X102615504Y-147508642D03*
X94715504Y-147508642D03*
X102615504Y-123808642D03*
X94715504Y-123808642D03*
X102599606Y-101721954D03*
X94699606Y-101721954D03*
X102519530Y-79115544D03*
X94619530Y-79115544D03*
X94715504Y-151508642D03*
X102615504Y-151508642D03*
X94715504Y-131808642D03*
X102615504Y-131808642D03*
X102615504Y-143508642D03*
X94715504Y-143508642D03*
X94715504Y-155508642D03*
X102615504Y-155508642D03*
X102615504Y-119808642D03*
X94715504Y-119808642D03*
X94715504Y-127808642D03*
X102615504Y-127808642D03*
X94719530Y-70915544D03*
X102619530Y-70915544D03*
X94699606Y-93721954D03*
X102599606Y-93721954D03*
X102519530Y-74815544D03*
X94619530Y-74815544D03*
X94719530Y-66915544D03*
X102619530Y-66915544D03*
X102599606Y-97721954D03*
X94699606Y-97721954D03*
X94749606Y-89721954D03*
X102649606Y-89721954D03*
D14*
X200073504Y-106606642D03*
X200073504Y-108606642D03*
X198073504Y-108606642D03*
X198073504Y-106606642D03*
X200073504Y-123106642D03*
X200073504Y-125106642D03*
X198073504Y-125106642D03*
X198073504Y-123106642D03*
D39*
X123465504Y-124178642D03*
X123465504Y-121638642D03*
X123465504Y-147778642D03*
X123465504Y-145238642D03*
X94736558Y-37725974D03*
X94736558Y-35185974D03*
X123465504Y-76378642D03*
X123465504Y-73838642D03*
X123465504Y-99678642D03*
X123465504Y-97138642D03*
X94736558Y-43025974D03*
X94736558Y-40485974D03*
X94736558Y-48325974D03*
X94736558Y-45785974D03*
X94736558Y-53625974D03*
X94736558Y-51085974D03*
D40*
X111865504Y-124908642D03*
X111865504Y-122368642D03*
X111865504Y-127448642D03*
X111929504Y-148508642D03*
X111929504Y-145968642D03*
X111929504Y-151048642D03*
X111865504Y-96721954D03*
X111865504Y-94181954D03*
X111865504Y-99261954D03*
X112465504Y-74115544D03*
X112465504Y-71575544D03*
X112465504Y-76655544D03*
D41*
X199073504Y-111656642D03*
X199073504Y-119556642D03*
X199073504Y-128156642D03*
X199073504Y-136056642D03*
D42*
X205573504Y-128106642D03*
D40*
X205573504Y-133186642D03*
D42*
X205573504Y-111526642D03*
D40*
X205573504Y-116606642D03*
D27*
X246325504Y-79748642D03*
X246325504Y-76848642D03*
D43*
X228233504Y-78506642D03*
X225693504Y-78506642D03*
X230773504Y-78506642D03*
X33565504Y-70844642D03*
X31025504Y-70844642D03*
X36105504Y-70844642D03*
D25*
X88015504Y-49608642D03*
X86115504Y-49608642D03*
X86115504Y-47508642D03*
X88015504Y-47508642D03*
D14*
X116265504Y-42008642D03*
X116265504Y-40008642D03*
X111065504Y-31908642D03*
X111065504Y-33908642D03*
D31*
X86588200Y-107289180D03*
X87858200Y-107289180D03*
X89128200Y-107289180D03*
X90398200Y-107289180D03*
X90398200Y-113639180D03*
X89128200Y-113639180D03*
X87858200Y-113639180D03*
X86588200Y-113639180D03*
X249960504Y-101133642D03*
X251230504Y-101133642D03*
X252500504Y-101133642D03*
X253770504Y-101133642D03*
X253770504Y-107483642D03*
X252500504Y-107483642D03*
X251230504Y-107483642D03*
X249960504Y-107483642D03*
D26*
X265565504Y-81758642D03*
X265565504Y-83658642D03*
D44*
X24000000Y-161000000D03*
X24000000Y-24000000D03*
X266000000Y-161000000D03*
X266000000Y-24000000D03*
X145000000Y-24000000D03*
X145000000Y-161000000D03*
D45*
G36*
X114563000Y-73859737D02*
X114533000Y-88369737D01*
X114533000Y-88370149D01*
X114543000Y-96889854D01*
X114533294Y-101073000D01*
X109597000Y-101073000D01*
X109597000Y-72837000D01*
X114563000Y-72837000D01*
X114563000Y-73859737D01*
X114563000Y-73859737D01*
G37*
X114563000Y-73859737D02*
X114533000Y-88369737D01*
X114533000Y-88370149D01*
X114543000Y-96889854D01*
X114533294Y-101073000D01*
X109597000Y-101073000D01*
X109597000Y-72837000D01*
X114563000Y-72837000D01*
X114563000Y-73859737D01*
G36*
X141573000Y-102673000D02*
X127227000Y-102673000D01*
X127227000Y-90200000D01*
X127216994Y-90150590D01*
X127187344Y-90107804D01*
X125287344Y-88307804D01*
X125244593Y-88281086D01*
X125200000Y-88273000D01*
X114727000Y-88273000D01*
X114727000Y-81427000D01*
X141573000Y-81427000D01*
X141573000Y-102673000D01*
X141573000Y-102673000D01*
G37*
X141573000Y-102673000D02*
X127227000Y-102673000D01*
X127227000Y-90200000D01*
X127216994Y-90150590D01*
X127187344Y-90107804D01*
X125287344Y-88307804D01*
X125244593Y-88281086D01*
X125200000Y-88273000D01*
X114727000Y-88273000D01*
X114727000Y-81427000D01*
X141573000Y-81427000D01*
X141573000Y-102673000D01*
G36*
X141573000Y-141673000D02*
X127227000Y-141673000D01*
X127227000Y-112827000D01*
X141573000Y-112827000D01*
X141573000Y-141673000D01*
X141573000Y-141673000D01*
G37*
X141573000Y-141673000D02*
X127227000Y-141673000D01*
X127227000Y-112827000D01*
X141573000Y-112827000D01*
X141573000Y-141673000D01*
G36*
X126973000Y-140673000D02*
X114727000Y-140673000D01*
X114727000Y-133827000D01*
X126973000Y-133827000D01*
X126973000Y-140673000D01*
X126973000Y-140673000D01*
G37*
X126973000Y-140673000D02*
X114727000Y-140673000D01*
X114727000Y-133827000D01*
X126973000Y-133827000D01*
X126973000Y-140673000D01*
G36*
X114573000Y-149673000D02*
X109227000Y-149673000D01*
X109227000Y-126327000D01*
X114573000Y-126327000D01*
X114573000Y-149673000D01*
X114573000Y-149673000D01*
G37*
X114573000Y-149673000D02*
X109227000Y-149673000D01*
X109227000Y-126327000D01*
X114573000Y-126327000D01*
X114573000Y-149673000D01*
G36*
X109052750Y-98773000D02*
X104206750Y-98773000D01*
X104206750Y-95827000D01*
X109052750Y-95827000D01*
X109052750Y-98773000D01*
X109052750Y-98773000D01*
G37*
X109052750Y-98773000D02*
X104206750Y-98773000D01*
X104206750Y-95827000D01*
X109052750Y-95827000D01*
X109052750Y-98773000D01*
G36*
X110973000Y-125523000D02*
X109227000Y-125523000D01*
X109227000Y-124277000D01*
X110973000Y-124277000D01*
X110973000Y-125523000D01*
X110973000Y-125523000D01*
G37*
X110973000Y-125523000D02*
X109227000Y-125523000D01*
X109227000Y-124277000D01*
X110973000Y-124277000D01*
X110973000Y-125523000D01*
G36*
X194523000Y-100102606D02*
X194523000Y-113250000D01*
X194533006Y-113299410D01*
X194560197Y-113339803D01*
X197710197Y-116489803D01*
X197752211Y-116517666D01*
X197800000Y-116527000D01*
X201800000Y-116527000D01*
X201849410Y-116516994D01*
X201889803Y-116489803D01*
X203725232Y-114654374D01*
X204679980Y-114177000D01*
X206596171Y-114177000D01*
X208023000Y-115651390D01*
X208023000Y-117547394D01*
X204247394Y-121323000D01*
X195602606Y-121323000D01*
X189577000Y-115297394D01*
X189577000Y-102550000D01*
X189566994Y-102500590D01*
X189538553Y-102458965D01*
X189496159Y-102431685D01*
X189450000Y-102423000D01*
X183285178Y-102423000D01*
X181627000Y-101428093D01*
X181627000Y-97577000D01*
X191997394Y-97577000D01*
X194523000Y-100102606D01*
X194523000Y-100102606D01*
G37*
X194523000Y-100102606D02*
X194523000Y-113250000D01*
X194533006Y-113299410D01*
X194560197Y-113339803D01*
X197710197Y-116489803D01*
X197752211Y-116517666D01*
X197800000Y-116527000D01*
X201800000Y-116527000D01*
X201849410Y-116516994D01*
X201889803Y-116489803D01*
X203725232Y-114654374D01*
X204679980Y-114177000D01*
X206596171Y-114177000D01*
X208023000Y-115651390D01*
X208023000Y-117547394D01*
X204247394Y-121323000D01*
X195602606Y-121323000D01*
X189577000Y-115297394D01*
X189577000Y-102550000D01*
X189566994Y-102500590D01*
X189538553Y-102458965D01*
X189496159Y-102431685D01*
X189450000Y-102423000D01*
X183285178Y-102423000D01*
X181627000Y-101428093D01*
X181627000Y-97577000D01*
X191997394Y-97577000D01*
X194523000Y-100102606D01*
G36*
X190510197Y-133539803D02*
X190552211Y-133567666D01*
X190600000Y-133577000D01*
X198050000Y-133577000D01*
X198099410Y-133566994D01*
X198139803Y-133539803D01*
X200952606Y-130727000D01*
X206936883Y-130727000D01*
X208123000Y-132292675D01*
X208123000Y-134586883D01*
X206557325Y-135773000D01*
X202950000Y-135773000D01*
X202900590Y-135783006D01*
X202860197Y-135810197D01*
X200097394Y-138573000D01*
X188552606Y-138573000D01*
X181377000Y-131397394D01*
X181377000Y-129415557D01*
X183190524Y-128127000D01*
X185097394Y-128127000D01*
X190510197Y-133539803D01*
X190510197Y-133539803D01*
G37*
X190510197Y-133539803D02*
X190552211Y-133567666D01*
X190600000Y-133577000D01*
X198050000Y-133577000D01*
X198099410Y-133566994D01*
X198139803Y-133539803D01*
X200952606Y-130727000D01*
X206936883Y-130727000D01*
X208123000Y-132292675D01*
X208123000Y-134586883D01*
X206557325Y-135773000D01*
X202950000Y-135773000D01*
X202900590Y-135783006D01*
X202860197Y-135810197D01*
X200097394Y-138573000D01*
X188552606Y-138573000D01*
X181377000Y-131397394D01*
X181377000Y-129415557D01*
X183190524Y-128127000D01*
X185097394Y-128127000D01*
X190510197Y-133539803D01*
G36*
X109073000Y-117575541D02*
X109014016Y-117723000D01*
X88777000Y-117723000D01*
X88777000Y-108827000D01*
X93000000Y-108827000D01*
X93049410Y-108816994D01*
X93091035Y-108788553D01*
X93118315Y-108746159D01*
X93127000Y-108700000D01*
X93127000Y-103877000D01*
X104100000Y-103877000D01*
X104149410Y-103866994D01*
X104191035Y-103838553D01*
X104218315Y-103796159D01*
X104227000Y-103750000D01*
X104227000Y-99027000D01*
X109073000Y-99027000D01*
X109073000Y-117575541D01*
X109073000Y-117575541D01*
G37*
X109073000Y-117575541D02*
X109014016Y-117723000D01*
X88777000Y-117723000D01*
X88777000Y-108827000D01*
X93000000Y-108827000D01*
X93049410Y-108816994D01*
X93091035Y-108788553D01*
X93118315Y-108746159D01*
X93127000Y-108700000D01*
X93127000Y-103877000D01*
X104100000Y-103877000D01*
X104149410Y-103866994D01*
X104191035Y-103838553D01*
X104218315Y-103796159D01*
X104227000Y-103750000D01*
X104227000Y-99027000D01*
X109073000Y-99027000D01*
X109073000Y-117575541D01*
G36*
X109073000Y-125573000D02*
X104377000Y-125573000D01*
X104377000Y-117727000D01*
X109073000Y-117727000D01*
X109073000Y-125573000D01*
X109073000Y-125573000D01*
G37*
X109073000Y-125573000D02*
X104377000Y-125573000D01*
X104377000Y-117727000D01*
X109073000Y-117727000D01*
X109073000Y-125573000D01*
M02*
